<svg xmlns="http://www.w3.org/2000/svg" width="31" height="31" viewBox="0 0 31 31"><defs><style>.a{fill:#838580;}.b,.d{fill:none;}.b{stroke:#707070;opacity:0;}.c{stroke:none;}</style></defs><g transform="translate(-1693 -49)"><path class="a" d="M10.339,4.5h0a10.336,10.336,0,0,1,9.646,6.632h.3a7.026,7.026,0,0,1,0,14.052H10.332A10.342,10.342,0,0,1,10.339,4.5Zm9.946,17.684a4.026,4.026,0,0,0,0-8.052H18.893a1.5,1.5,0,0,1-1.452-1.125A7.336,7.336,0,0,0,10.34,7.5h0a7.348,7.348,0,0,0-7.322,7.964,7.3,7.3,0,0,0,7.315,6.72Z" transform="translate(1695.01 49.61)"/><g class="b" transform="translate(1693 49)"><rect class="c" width="31" height="31"/><rect class="d" x="0.5" y="0.5" width="30" height="30"/></g></g></svg>