<?xml version="1.0" encoding="utf-8"?>
<!-- Generator: Adobe Illustrator 26.0.1, SVG Export Plug-In . SVG Version: 6.00 Build 0)  -->
<svg version="1.1" id="Layer_1" xmlns="http://www.w3.org/2000/svg" xmlns:xlink="http://www.w3.org/1999/xlink" x="0px" y="0px"
	 viewBox="0 0 50 50" style="enable-background:new 0 0 50 50;" xml:space="preserve">
<style type="text/css">
	.st0{opacity:0;}
	.st1{fill:none;}
	.st2{fill:none;stroke:#707070;}
	.st3{fill:#3a413e;}
</style>
<g transform="translate(-1555 -489)">
	<g transform="translate(1555 489)" class="st0">
		<rect class="st1" width="50" height="50"/>
		<rect x="0.5" y="0.5" class="st2" width="49" height="49"/>
	</g>
	<g>
		<path class="st3" d="M1597.5,503.4l-2,2l-2.4-2.4l-0.9,0.9h-8.4l-0.9,0.9v-2.5l-3.9,3.9v-1.7l-3.3-3.3l-2.6,2.6v1l-0.9-0.9h-5.2
			l-2.4-2.4l-3.8,3.8v10l-2.3,2.3l2.4,2.4h1.5v0.9l3.6,3.6h2l2.9,2.7l2.4-2.4h6.1l0.9-0.9l3.4,3.4l2.5-2.5h7.9l3.8-3.8v-4.1l1.3,1.3
			l2.6-2.6v-7.8L1597.5,503.4z M1581.7,508.5l2.7-2.6h5.4l-2.6,2.6h-2.8v1.4h1.6l-1.4,1.4h4.9l-2.5,2.5h-5.3V508.5z M1574.8,503.2
			l2.9,2.4v4.3l3.5-3.5v3.6l-3.7,3.7l-2.6-2.6V503.2z M1560.3,518l2.7-2.7l-0.1-9.5l2.6-2.5v12l-2.6,2.8L1560.3,518z M1567.3,522.3
			l-2.6-2.6l0-3l2.6-2.6V522.3z M1572.9,522.5l-2.8,2.8v-8.5h-2.7v-0.1l2.5-2.5h2.9V522.5z M1568.8,513.7l-2.6-2.6v-5.3l5.4,0
			l2.7,2.7v5.2H1568.8z M1577.4,518.5l-1.4,1.4h5.2l-2.6,2.6h-5.4V517l2.7-2.7h5.4l-2.7,2.7h-2.9v1.5H1577.4z M1595.3,519.7
			l-2.8,2.8h-5.4v-5.5h-2.8v8l-2.6-2.6v-8.1l2.7,2.5v-2.5l2.7,2.7V517l2.7-2.7l2.7,2.7h-2.7v2.7h2.8l0-5.6l2.7-2.7V519.7z
			 M1599.1,516.6l-2.6-2.6v-4.2l-1.9,1.9l-2.2-2.2v4l-2.5-2.4v-2.7l2.6-2.6l3.7,3.7v-3.6l2.8,2.8V516.6z"/>
		<rect x="1569" y="508.3" class="st3" width="2.7" height="3"/>
	</g>
</g>
</svg>
