<svg xmlns="http://www.w3.org/2000/svg" width="29" height="29" viewBox="0 0 29 29"><defs><style>.a{fill:#838580;}</style></defs><path class="a" d="M14.5,0A14.5,14.5,0,1,0,29,14.5,14.5,14.5,0,0,0,14.5,0Zm0,27.792A13.292,13.292,0,1,1,27.792,14.5,13.293,13.293,0,0,1,14.5,27.792ZM26.848,14.5A12.351,12.351,0,0,1,17.44,26.493c-.326-.63-.64-1.229-.905-1.738A8.662,8.662,0,0,0,19.2,25.5c.454-.174.341-3.805-.169-3.921-.408-.091-1.972,1.011-2.587,1.461l.041.188a3.342,3.342,0,0,1,.036,1.507.06.06,0,0,1,0,.016.263.263,0,0,1-.082.106,3.152,3.152,0,0,1-1.816.227.624.624,0,0,1-.077-.024c-.839.478-2.429,1.34-2.719,1.173-.4-.227-.456-3.233-.4-3.973.042-.556,2,.346,2.951.82a2.366,2.366,0,0,1,1.184-.375,9.245,9.245,0,0,1-.886-4.96,0,0,0,0,0,0,0A13.819,13.819,0,0,0,19.4,18.988c1.426-.029,3.763-.9,3.508-1.6s-2.58.616-5,.392c-1.8-.167-2.112-.972-1.716-1.559.5-.738,1.411.14,2.913-.309a29.166,29.166,0,0,0,4.389-1.688c1.805-1.007-.755-1.422-1.359-1.144a31.381,31.381,0,0,1-3.491.991c.517-1.832-.729-5.013-2.123-6.4a3.706,3.706,0,0,0-1.937-.889A4.3,4.3,0,0,0,13.1,5.6a6.974,6.974,0,0,0-4.344-.706l-.029,0-.041,0,0,0c-.179.034-.286.1-.431.118a12.056,12.056,0,0,1,1.277.505c-.21.082-.5.13-.72.222a1,1,0,0,0-.247.068.825.825,0,0,0-.363.622,10.4,10.4,0,0,1,3.614.3,6.368,6.368,0,0,0-2.007.582c-.019.01-.036.022-.058.034a1.614,1.614,0,0,0-.184.08c-1.652.87-2.382,2.906-1.947,5.346.39,2.2,2.012,9.773,2.767,13.369A12.349,12.349,0,1,1,26.848,14.5ZM10.99,11.577a.916.916,0,1,0,.916.916A.916.916,0,0,0,10.99,11.577Zm.408.848a.237.237,0,1,1,.237-.237A.237.237,0,0,1,11.4,12.425Zm5.708-1.26a.785.785,0,1,0,.785.784.785.785,0,0,0-.785-.784Zm.35.726a.2.2,0,1,1,.2-.2.2.2,0,0,1-.2.2Zm-6.2-2.048a1.525,1.525,0,0,0-1.359.109c-.669.42-.645.851-.645.851a.875.875,0,0,1,.592-1.182,1.163,1.163,0,0,1,1.414.222ZM17.58,9.78A2.178,2.178,0,0,0,16.7,9.5c-.79.01-1,.358-1,.358A.887.887,0,0,1,16.836,9.2,1.015,1.015,0,0,1,17.58,9.78Z"/></svg>