<svg xmlns="http://www.w3.org/2000/svg" width="50" height="50" viewBox="0 0 50 50"><g transform="translate(-1455 -489)"><g transform="translate(1455 489)" fill="none" stroke="#707070" stroke-width="1" opacity="0"><rect width="50" height="50" stroke="none"/><rect x="0.5" y="0.5" width="49" height="49" fill="none"/></g><g transform="translate(1462.01 498.095)"><path d="M250.15,211.5v2.378a4.951,4.951,0,0,1,5.1,5.116h2.37a7.319,7.319,0,0,0-7.471-7.494Zm8.973-1.479a12.4,12.4,0,0,0-8.818-3.667h-.148v2.543a9.927,9.927,0,0,1,10.065,10.095h2.543v-.148A12.4,12.4,0,0,0,259.123,210.017Z" transform="translate(-232.481 -201.413)" fill="#3a413e"/><path d="M179.53,203.91a17.665,17.665,0,1,1,35.33,0v1.847H210.1V203.93h2.35v-.02a15.268,15.268,0,0,0-30.514,0v.02h2.35v1.827h-4.756V203.91Z" transform="translate(-179.537 -186.34)" fill="#3a413e"/><path d="M245.474,209.721l-1.251-13.681-1.251,13.681a2,2,0,1,0,2.5,0Z" transform="translate(-226.536 -193.683)" fill="#3a413e"/><path d="M181.773,276.135v2.188h4.876v2.045h-4.876v3.96H179.52V274.09h7.787v2.045Z" transform="translate(-179.53 -252.197)" fill="#3a413e"/><path d="M215.658,284.1l-.936-2.293H210.4l-.936,2.293H207.17l4.383-10.3h2.083l4.383,10.3h-2.353Zm-3.1-7.6L211.2,279.82h2.718Z" transform="translate(-200.259 -251.98)" fill="#3a413e"/><path d="M256.27,284.055a6.508,6.508,0,0,1-4.34-1.634l1.329-1.592a4.75,4.75,0,0,0,3.054,1.251c.921,0,1.477-.365,1.477-.964v-.03c0-.571-.35-.861-2.06-1.3-2.06-.526-3.389-1.1-3.389-3.126v-.03c0-1.855,1.5-3.084,3.579-3.084a5.92,5.92,0,0,1,3.787,1.289l-1.169,1.695a4.787,4.787,0,0,0-2.658-1c-.861,0-1.3.383-1.3.884v.03c0,.671.438.891,2.205,1.344,2.075.541,3.254,1.287,3.254,3.069v.03C260.025,282.921,258.475,284.055,256.27,284.055Z" transform="translate(-233.816 -251.79)" fill="#3a413e"/><path d="M292.184,276.165v8.152h-2.253v-8.152H286.82V274.09h8.473v2.075Z" transform="translate(-259.973 -252.197)" fill="#3a413e"/></g></g></svg>